<svg id="svg" version="1.1" xmlns="http://www.w3.org/2000/svg" xmlns:xlink="http://www.w3.org/1999/xlink" width="400" height="399.68750000000006" viewBox="0, 0, 400,399.68750000000006"><g id="svgg"><path id="path0" d="M97.585 239.063 C 97.584 257.367,97.686 271.852,97.813 271.250 C 97.966 270.521,98.056 270.391,98.084 270.859 C 98.121 271.497,98.283 271.563,99.825 271.563 L 101.524 271.563 101.712 270.234 C 101.816 269.504,101.859 255.125,101.809 238.281 L 101.719 207.656 99.922 207.563 C 98.624 207.495,98.113 207.582,98.081 207.875 C 98.056 208.098,97.936 207.719,97.813 207.031 C 97.689 206.344,97.587 220.758,97.585 239.063 M196.922 222.693 L 196.875 239.605 186.016 232.417 C 180.043 228.464,170.727 222.303,165.313 218.727 C 159.898 215.151,155.299 212.076,155.091 211.894 C 154.884 211.712,154.627 211.563,154.521 211.563 C 154.415 211.563,153.212 210.789,151.848 209.844 C 150.483 208.898,149.228 208.125,149.058 208.125 C 148.889 208.125,148.750 207.993,148.750 207.832 C 148.750 207.664,147.066 207.540,144.824 207.542 C 141.459 207.545,140.951 207.609,141.269 207.991 C 141.472 208.237,141.784 208.438,141.962 208.438 C 142.139 208.438,142.788 208.824,143.403 209.297 C 144.579 210.201,166.899 225.075,185.725 237.500 L 196.852 244.844 196.906 258.906 C 196.936 266.641,197.021 272.652,197.096 272.266 C 197.278 271.320,200.792 271.181,201.035 272.109 C 201.113 272.410,201.194 266.509,201.214 258.995 L 201.250 245.335 237.578 245.231 C 278.030 245.115,274.241 245.310,280.537 243.026 C 293.892 238.183,303.479 225.372,304.550 210.938 C 304.784 207.787,304.613 207.500,302.501 207.500 C 301.334 207.500,300.620 207.359,300.519 207.109 C 300.433 206.895,300.333 207.703,300.297 208.906 C 299.879 223.097,290.803 235.190,277.344 239.493 C 272.035 241.190,271.058 241.230,234.768 241.240 L 201.255 241.250 201.175 224.453 L 201.094 207.656 199.160 207.564 C 197.327 207.476,197.220 207.427,197.097 206.626 C 197.027 206.161,196.948 213.392,196.922 222.693 M113.033 207.419 C 110.451 207.580,110.619 205.176,110.674 241.192 C 110.701 258.841,110.820 272.578,110.938 271.719 C 111.055 270.859,111.174 270.473,111.201 270.859 C 111.246 271.505,111.403 271.563,113.125 271.563 L 115.000 271.563 115.000 239.375 C 115.000 221.672,114.965 207.214,114.922 207.247 C 114.879 207.279,114.029 207.357,113.033 207.419 M124.213 207.875 C 124.127 208.098,124.094 222.484,124.138 239.844 L 124.219 271.406 125.988 271.499 L 127.756 271.592 127.956 269.312 C 128.066 268.057,128.114 253.672,128.062 237.344 L 127.969 207.656 126.168 207.562 C 124.907 207.497,124.321 207.590,124.213 207.875 M311.321 225.992 C 311.110 226.203,310.932 226.523,310.926 226.703 C 310.920 226.884,310.589 227.728,310.191 228.580 L 309.467 230.129 310.411 231.861 C 310.930 232.814,311.683 234.118,312.084 234.759 C 312.485 235.401,312.813 235.986,312.813 236.060 C 312.813 236.134,314.870 239.898,317.384 244.425 C 319.898 248.952,322.343 253.359,322.817 254.219 C 323.291 255.078,324.771 257.750,326.106 260.156 C 327.442 262.563,328.954 265.305,329.468 266.250 C 329.982 267.195,330.505 268.109,330.631 268.281 C 330.757 268.453,331.389 269.578,332.036 270.781 C 333.814 274.088,336.431 278.823,338.599 282.656 C 339.669 284.547,341.038 287.009,341.642 288.128 C 343.198 291.009,347.602 298.946,350.309 303.750 C 351.132 305.211,353.158 308.867,354.811 311.875 C 356.463 314.883,358.212 318.047,358.697 318.906 C 359.182 319.766,360.190 321.594,360.937 322.969 C 361.685 324.344,363.045 326.768,363.961 328.357 C 364.876 329.945,365.625 331.319,365.625 331.410 C 365.625 331.501,365.952 332.099,366.351 332.741 C 366.750 333.382,367.758 335.172,368.590 336.719 C 370.592 340.441,371.831 342.697,372.707 344.219 C 373.103 344.906,373.564 345.780,373.732 346.160 C 373.900 346.539,374.606 347.853,375.300 349.078 C 375.994 350.303,376.563 351.353,376.563 351.410 C 376.563 351.467,357.519 351.560,334.245 351.616 C 310.970 351.673,291.830 351.816,291.712 351.934 C 291.299 352.347,292.535 354.936,293.235 355.124 C 294.030 355.337,383.125 355.380,383.125 355.167 C 383.125 354.930,379.081 347.212,377.769 344.945 C 377.106 343.798,376.563 342.800,376.563 342.727 C 376.563 342.654,375.885 341.342,375.057 339.813 C 374.229 338.283,372.945 335.906,372.204 334.531 C 371.463 333.156,370.242 330.946,369.491 329.620 C 368.740 328.294,368.125 327.131,368.125 327.035 C 368.125 326.940,367.795 326.337,367.391 325.696 C 366.987 325.056,364.576 320.734,362.033 316.094 C 359.489 311.453,357.078 307.132,356.673 306.491 C 356.268 305.850,355.938 305.239,355.938 305.132 C 355.938 305.025,355.157 303.581,354.203 301.922 C 353.249 300.263,352.358 298.695,352.222 298.438 C 351.549 297.163,349.447 293.366,344.439 284.375 C 342.284 280.508,340.030 276.430,339.430 275.313 C 338.830 274.195,337.427 271.664,336.311 269.688 C 335.196 267.711,333.901 265.391,333.433 264.531 C 332.966 263.672,332.213 262.301,331.761 261.484 C 331.308 260.668,330.571 259.332,330.124 258.516 C 329.676 257.699,329.205 256.891,329.077 256.719 C 328.949 256.547,328.279 255.352,327.587 254.063 C 326.445 251.934,322.653 245.070,320.967 242.079 C 320.594 241.418,319.637 239.660,318.841 238.173 C 318.045 236.686,316.819 234.481,316.118 233.274 C 315.417 232.067,314.352 230.136,313.750 228.982 C 312.209 226.026,311.796 225.517,311.321 225.992 M85.053 231.205 C 84.009 233.070,82.707 235.426,82.160 236.439 C 81.614 237.452,80.922 238.703,80.622 239.219 C 80.322 239.734,79.620 241.000,79.063 242.031 C 78.505 243.063,77.381 245.102,76.565 246.563 C 67.304 263.141,66.250 265.046,66.250 265.200 C 66.250 265.269,65.922 265.849,65.522 266.491 C 65.121 267.132,64.259 268.641,63.606 269.844 C 62.953 271.047,61.402 273.859,60.159 276.094 C 58.916 278.328,57.365 281.141,56.711 282.344 C 56.057 283.547,54.651 286.078,53.587 287.969 C 51.439 291.785,50.061 294.271,48.969 296.304 C 48.569 297.048,47.604 298.781,46.823 300.156 C 46.043 301.531,45.015 303.359,44.539 304.219 C 42.848 307.273,36.767 318.309,35.843 320.000 C 35.327 320.945,34.153 323.031,33.234 324.634 C 32.315 326.238,31.563 327.611,31.563 327.687 C 31.563 327.763,31.236 328.349,30.836 328.991 C 30.437 329.632,29.380 331.527,28.487 333.202 C 27.594 334.877,26.535 336.846,26.134 337.577 C 25.732 338.308,23.856 341.719,21.965 345.156 C 17.495 353.280,16.562 355.009,16.562 355.175 C 16.563 355.429,191.715 355.305,192.115 355.051 C 192.432 354.850,192.416 354.529,192.037 353.454 C 191.776 352.714,191.563 352.064,191.563 352.010 C 191.563 351.955,192.160 351.857,192.891 351.791 C 193.621 351.726,155.793 351.647,108.828 351.617 C 57.277 351.584,23.438 351.449,23.438 351.276 C 23.438 351.118,24.070 349.919,24.844 348.611 C 25.617 347.302,26.250 346.172,26.250 346.099 C 26.250 346.025,26.646 345.291,27.131 344.467 C 27.616 343.643,28.761 341.563,29.676 339.844 C 30.591 338.125,31.450 336.575,31.586 336.400 C 31.871 336.031,42.500 316.857,42.500 316.711 C 42.500 316.658,43.133 315.544,43.906 314.236 C 44.680 312.927,45.313 311.809,45.313 311.750 C 45.313 311.691,46.086 310.277,47.031 308.608 C 47.977 306.938,48.750 305.519,48.750 305.452 C 48.750 305.386,49.432 304.167,50.265 302.744 C 51.098 301.321,52.272 299.242,52.875 298.125 C 53.477 297.008,55.678 293.022,57.766 289.268 C 59.854 285.514,61.563 282.383,61.563 282.309 C 61.563 282.235,61.890 281.651,62.291 281.009 C 62.691 280.368,63.519 278.929,64.130 277.810 C 66.215 273.991,70.076 267.049,70.468 266.415 C 70.683 266.066,71.348 264.867,71.946 263.750 C 72.544 262.633,75.180 257.852,77.803 253.125 C 80.427 248.398,83.000 243.758,83.521 242.813 C 84.042 241.867,85.151 239.879,85.984 238.395 L 87.500 235.696 87.500 231.754 C 87.500 226.967,87.435 226.952,85.053 231.205 " stroke="none" fill="#f3da6a" fill-rule="evenodd"></path><path id="path1" d="M197.640 28.203 C 196.490 30.309,194.852 33.250,194.001 34.740 C 193.149 36.229,192.423 37.651,192.386 37.899 C 192.350 38.147,192.079 38.590,191.785 38.885 C 191.491 39.179,191.256 39.656,191.263 39.944 C 191.271 40.295,191.429 40.185,191.741 39.609 C 192.292 38.594,196.208 38.219,195.824 39.219 C 195.726 39.477,195.747 39.688,195.872 39.688 C 196.136 39.688,196.400 39.280,197.801 36.719 C 198.365 35.688,199.110 34.374,199.456 33.800 L 200.086 32.756 201.110 34.674 C 201.674 35.728,202.316 36.810,202.538 37.077 C 202.760 37.344,202.975 37.792,203.016 38.073 C 203.057 38.353,203.231 38.629,203.403 38.686 C 203.574 38.744,203.875 39.275,204.070 39.867 C 204.266 40.459,204.556 40.862,204.716 40.764 C 204.880 40.662,204.801 40.291,204.535 39.910 C 203.758 38.801,203.961 38.674,206.287 38.805 C 207.510 38.874,208.354 38.878,208.162 38.814 C 207.970 38.750,207.813 38.440,207.813 38.125 C 207.813 37.810,207.707 37.505,207.578 37.448 C 207.449 37.391,206.872 36.430,206.296 35.313 C 204.142 31.137,200.245 24.375,199.993 24.375 C 199.849 24.375,198.790 26.098,197.640 28.203 M208.910 40.547 C 208.968 40.848,209.025 41.184,209.039 41.295 C 209.052 41.405,209.275 41.577,209.535 41.677 C 209.953 41.838,209.952 41.752,209.527 40.929 C 208.985 39.880,208.755 39.738,208.910 40.547 M204.949 41.496 C 205.178 41.657,205.343 41.910,205.316 42.058 C 205.288 42.207,205.452 42.378,205.680 42.438 C 206.019 42.528,206.018 42.494,205.676 42.254 C 205.447 42.093,205.282 41.840,205.309 41.692 C 205.337 41.543,205.173 41.372,204.945 41.312 C 204.606 41.222,204.607 41.256,204.949 41.496 M196.940 173.516 L 197.031 176.094 199.141 176.186 C 200.898 176.263,201.250 176.196,201.250 175.782 C 201.250 175.285,270.616 175.211,272.813 175.706 C 274.763 176.146,276.137 176.508,276.641 176.716 C 276.968 176.851,277.188 176.803,277.188 176.596 C 277.188 176.080,285.684 176.123,286.206 176.641 C 286.522 176.954,286.558 176.923,286.391 176.484 C 286.277 176.184,285.999 175.938,285.774 175.938 C 285.549 175.938,285.318 175.832,285.260 175.703 C 284.986 175.085,280.032 173.088,276.563 172.197 C 272.020 171.031,268.730 170.938,232.298 170.938 L 196.850 170.938 196.940 173.516 M97.500 175.234 L 97.500 176.406 99.219 176.406 C 100.164 176.406,100.938 176.361,100.938 176.306 C 100.938 176.118,100.046 175.313,99.837 175.313 C 99.723 175.313,99.272 175.031,98.835 174.688 C 97.718 173.809,97.500 173.898,97.500 175.234 M110.684 308.984 L 110.625 322.813 112.813 322.813 L 115.000 322.813 115.001 311.484 L 115.001 300.156 113.138 300.261 C 111.003 300.382,111.022 300.409,110.843 297.031 C 110.788 296.000,110.717 301.379,110.684 308.984 M97.541 310.391 L 97.500 322.813 99.688 322.813 L 101.875 322.813 101.870 311.172 C 101.868 304.770,101.749 299.715,101.606 299.940 C 100.966 300.949,97.988 300.267,97.776 299.063 C 97.669 298.461,97.564 303.559,97.541 310.391 M127.813 299.844 C 127.813 300.451,124.512 300.524,124.269 299.922 C 124.183 299.707,124.101 304.770,124.087 311.172 L 124.063 322.813 126.094 322.813 L 128.125 322.813 128.125 311.094 C 128.125 304.648,128.055 299.375,127.969 299.375 C 127.883 299.375,127.813 299.586,127.813 299.844 M196.875 311.094 L 196.875 321.875 199.063 321.875 L 201.250 321.875 201.250 311.094 L 201.250 300.313 199.063 300.313 L 196.875 300.313 196.875 311.094 " stroke="none" fill="#ab752d" fill-rule="evenodd"></path><path id="path2" d="M176.250 67.427 C 175.992 67.718,175.816 68.064,175.859 68.197 C 175.902 68.329,175.789 68.438,175.607 68.438 C 175.425 68.438,175.353 68.563,175.449 68.717 C 175.544 68.871,175.435 69.069,175.207 69.156 C 174.979 69.244,174.388 70.137,173.894 71.142 C 173.399 72.147,172.747 73.337,172.443 73.787 C 172.140 74.237,171.415 75.502,170.833 76.599 C 169.908 78.342,168.977 80.033,165.948 85.469 C 165.565 86.156,164.825 87.492,164.303 88.438 C 163.781 89.383,162.727 91.244,161.962 92.573 C 161.197 93.903,160.538 95.215,160.498 95.489 C 160.458 95.763,160.280 96.082,160.103 96.197 C 159.623 96.509,158.983 97.837,159.206 98.060 C 159.313 98.167,159.485 97.929,159.588 97.533 C 159.768 96.847,159.892 96.817,162.075 96.927 L 164.372 97.043 164.908 95.944 C 165.203 95.339,165.414 94.738,165.378 94.609 C 165.342 94.480,165.453 94.375,165.625 94.375 C 165.797 94.375,165.938 94.164,165.938 93.906 C 165.938 93.648,166.064 93.438,166.219 93.438 C 166.374 93.438,166.650 93.051,166.831 92.578 C 167.013 92.105,167.612 90.945,168.163 90.000 C 169.032 88.508,172.172 82.861,174.592 78.438 C 175.016 77.664,175.912 76.047,176.584 74.844 C 177.256 73.641,178.193 71.883,178.665 70.938 C 179.137 69.992,179.648 69.129,179.801 69.019 C 179.955 68.910,179.989 68.673,179.879 68.494 C 179.768 68.315,179.820 68.080,179.995 67.972 C 180.170 67.864,180.313 67.573,180.313 67.325 C 180.313 66.637,176.874 66.724,176.250 67.427 M219.613 67.250 C 219.538 67.473,219.700 67.842,219.973 68.070 C 220.359 68.393,220.365 68.432,220.000 68.251 C 219.652 68.078,219.673 68.179,220.078 68.643 C 220.379 68.987,220.625 69.475,220.625 69.728 C 220.625 69.981,220.748 70.321,220.899 70.484 C 221.050 70.648,221.522 71.414,221.949 72.188 C 222.376 72.961,223.708 75.352,224.909 77.500 C 226.110 79.648,227.700 82.531,228.443 83.906 C 229.186 85.281,230.070 86.898,230.407 87.500 C 230.744 88.102,231.722 89.859,232.581 91.406 C 233.439 92.953,234.299 94.322,234.493 94.448 C 234.686 94.575,234.716 94.680,234.561 94.683 C 234.405 94.685,234.501 94.934,234.773 95.234 C 235.045 95.535,235.251 95.852,235.231 95.938 C 235.054 96.684,235.950 97.031,238.047 97.031 C 239.293 97.031,240.313 97.026,240.313 97.019 C 240.313 96.636,239.071 94.782,238.916 94.934 C 238.792 95.056,238.732 94.945,238.782 94.688 C 238.867 94.251,238.098 92.577,236.520 89.767 C 236.157 89.122,235.264 87.539,234.534 86.250 C 233.803 84.961,232.603 82.781,231.866 81.406 C 230.605 79.055,227.500 73.533,226.857 72.500 C 226.697 72.242,226.339 71.505,226.062 70.861 C 225.780 70.205,225.415 69.780,225.231 69.894 C 225.044 70.010,224.996 69.947,225.119 69.747 C 225.238 69.555,225.049 69.111,224.699 68.761 C 224.349 68.411,224.063 67.865,224.063 67.547 C 224.063 66.817,219.854 66.536,219.613 67.250 M162.846 98.644 C 162.364 99.703,162.518 99.812,163.204 98.894 C 163.505 98.492,163.631 98.088,163.484 97.997 C 163.337 97.906,163.050 98.197,162.846 98.644 M196.920 182.969 C 196.898 184.172,196.970 185.901,197.079 186.811 L 197.278 188.465 199.186 188.373 L 201.094 188.281 201.094 185.313 L 201.094 182.344 199.160 182.251 C 197.452 182.169,197.212 182.078,197.094 181.470 C 197.020 181.091,196.942 181.766,196.920 182.969 M97.690 182.682 C 97.442 183.328,97.478 186.112,97.752 187.500 L 97.969 188.594 99.922 188.594 L 101.876 188.594 101.876 185.885 C 101.875 182.207,101.863 182.188,99.688 182.188 C 98.327 182.188,97.832 182.310,97.690 182.682 M102.813 182.296 C 102.813 182.458,109.288 186.875,109.527 186.875 C 109.855 186.875,110.625 187.736,110.625 188.103 C 110.625 188.306,111.413 188.438,112.630 188.438 C 113.942 188.438,114.690 188.573,114.793 188.828 C 114.880 189.043,114.962 188.363,114.975 187.318 L 115.000 185.416 113.359 184.304 C 110.410 182.305,110.018 182.188,106.266 182.188 C 104.366 182.188,102.813 182.236,102.813 182.296 M288.438 182.443 C 288.438 182.583,289.283 183.584,290.317 184.666 C 291.351 185.749,292.684 187.217,293.280 187.927 C 293.875 188.638,294.366 189.043,294.369 188.828 C 294.373 188.553,295.028 188.438,296.582 188.438 L 298.790 188.438 298.084 187.181 C 297.695 186.489,296.575 185.083,295.594 184.056 L 293.811 182.188 291.124 182.188 C 289.647 182.188,288.438 182.302,288.438 182.443 M110.696 289.219 C 110.715 293.015,110.810 294.794,110.938 293.750 C 111.053 292.805,111.171 292.214,111.199 292.437 C 111.236 292.730,111.752 292.818,113.047 292.750 L 114.844 292.656 114.931 288.438 L 115.018 284.219 113.134 284.325 C 111.403 284.422,111.227 284.371,110.958 283.700 C 110.762 283.212,110.675 285.049,110.696 289.219 M127.879 283.984 C 127.835 284.246,127.194 284.375,125.938 284.375 L 124.063 284.375 124.063 288.099 C 124.063 292.860,124.042 292.813,126.113 292.813 C 128.152 292.813,128.210 292.644,128.051 287.188 C 127.993 285.211,127.916 283.770,127.879 283.984 M99.688 284.375 L 97.656 284.531 97.568 288.413 C 97.468 292.836,97.449 292.800,99.903 292.808 L 101.524 292.813 101.718 291.484 C 101.824 290.754,101.868 288.820,101.815 287.188 L 101.719 284.219 99.688 284.375 M197.083 284.583 C 196.969 284.698,196.898 287.053,196.925 289.818 C 196.953 292.582,197.031 294.393,197.100 293.843 C 197.224 292.849,197.240 292.841,199.159 292.749 L 201.094 292.656 201.181 288.516 L 201.268 284.375 199.280 284.375 C 198.186 284.375,197.198 284.469,197.083 284.583 M229.384 353.148 C 229.728 354.020,229.928 354.863,229.830 355.023 C 229.722 355.197,232.110 355.313,235.823 355.313 C 240.807 355.313,241.902 355.237,241.516 354.922 C 241.253 354.707,240.792 353.863,240.493 353.047 L 239.948 351.563 234.354 351.563 L 228.759 351.563 229.384 353.148 " stroke="none" fill="#c19b43" fill-rule="evenodd"></path><path id="path3" d="M192.148 38.281 C 192.127 38.367,192.085 38.543,192.055 38.672 C 191.824 39.665,191.471 40.293,191.228 40.142 C 191.068 40.044,190.938 40.172,190.938 40.428 C 190.938 40.684,190.753 41.079,190.528 41.306 C 190.303 41.533,189.903 42.141,189.639 42.656 C 188.943 44.015,187.258 47.065,186.049 49.157 C 185.472 50.155,185.000 51.016,185.000 51.070 C 185.000 51.125,184.212 52.559,183.250 54.257 C 180.255 59.539,179.946 60.095,178.734 62.385 C 178.086 63.610,177.181 65.206,176.724 65.930 C 176.266 66.654,175.992 67.339,176.114 67.451 C 176.236 67.564,176.398 67.480,176.475 67.266 C 176.673 66.711,180.313 66.726,180.313 67.281 C 180.313 67.505,180.144 67.856,179.938 68.062 C 179.671 68.329,179.665 68.438,179.916 68.438 C 180.111 68.438,180.369 68.121,180.490 67.734 C 180.610 67.348,180.802 66.961,180.915 66.875 C 181.028 66.789,182.014 65.102,183.106 63.125 C 184.198 61.148,186.142 57.633,187.426 55.313 C 188.710 52.992,190.329 50.039,191.024 48.750 C 191.720 47.461,192.607 45.899,192.995 45.278 C 193.384 44.658,193.748 43.884,193.804 43.559 C 193.860 43.235,194.082 42.783,194.297 42.556 C 194.512 42.329,194.688 41.942,194.688 41.696 C 194.688 41.451,194.836 41.250,195.018 41.250 C 195.200 41.250,195.272 41.124,195.176 40.970 C 195.081 40.816,195.196 40.617,195.431 40.526 C 196.850 39.982,195.860 38.750,194.005 38.750 C 192.848 38.750,192.223 38.632,192.344 38.438 C 192.450 38.266,192.458 38.125,192.362 38.125 C 192.266 38.125,192.170 38.195,192.148 38.281 M206.044 38.668 C 204.692 38.746,204.065 38.919,203.938 39.249 C 203.838 39.508,203.881 39.643,204.033 39.549 C 204.318 39.373,204.834 40.260,204.725 40.738 C 204.692 40.886,204.915 41.213,205.223 41.465 C 205.571 41.749,205.605 41.845,205.313 41.719 C 205.000 41.584,205.024 41.664,205.386 41.961 C 205.684 42.205,205.840 42.494,205.732 42.601 C 205.624 42.709,205.701 42.996,205.902 43.238 C 206.103 43.481,206.882 44.855,207.632 46.293 C 208.383 47.730,210.910 52.338,213.249 56.531 C 215.587 60.725,217.500 64.276,217.500 64.422 C 217.500 64.568,217.641 64.688,217.813 64.688 C 217.984 64.688,218.125 64.847,218.125 65.041 C 218.125 65.745,219.453 67.566,219.689 67.185 C 219.837 66.945,220.589 66.853,221.834 66.923 C 224.012 67.046,223.972 67.087,223.085 65.631 C 222.720 65.033,221.895 63.557,221.252 62.350 C 217.532 55.376,209.929 41.978,209.520 41.676 C 209.256 41.481,208.976 40.989,208.898 40.583 C 208.820 40.178,208.613 39.798,208.439 39.740 C 208.264 39.682,208.201 39.506,208.298 39.348 C 208.395 39.191,208.317 39.063,208.125 39.063 C 207.933 39.063,207.863 38.922,207.969 38.750 C 208.075 38.578,208.118 38.465,208.065 38.498 C 208.012 38.531,207.102 38.608,206.044 38.668 M196.874 178.164 C 196.876 182.005,196.943 182.121,199.253 182.240 L 201.251 182.344 201.251 179.323 L 201.250 176.301 199.062 176.198 L 196.874 176.094 196.874 178.164 M97.734 176.432 C 97.605 176.561,97.511 178.085,97.525 179.818 C 97.538 181.551,97.620 182.793,97.707 182.578 C 97.808 182.328,98.522 182.188,99.688 182.188 C 100.853 182.188,101.567 182.328,101.668 182.578 C 101.759 182.805,101.836 182.731,101.850 182.403 C 101.864 182.093,102.017 181.926,102.190 182.033 C 102.444 182.190,110.313 182.450,110.313 182.301 C 110.313 182.277,108.309 180.949,105.859 179.349 C 101.427 176.453,98.691 175.471,97.734 176.432 M277.188 176.563 C 277.188 176.734,277.293 176.852,277.422 176.824 C 277.551 176.796,278.619 177.218,279.795 177.761 C 280.971 178.305,281.988 178.750,282.055 178.750 C 282.321 178.750,286.478 181.387,287.579 182.254 C 288.291 182.816,288.676 182.984,288.561 182.683 C 288.314 182.041,293.344 181.945,294.077 182.578 C 294.326 182.793,294.038 182.429,293.437 181.768 C 292.836 181.108,291.219 179.740,289.844 178.727 C 288.469 177.715,287.174 176.743,286.966 176.568 C 286.447 176.131,286.167 176.169,286.434 176.641 C 286.610 176.953,286.570 176.953,286.233 176.641 C 285.707 176.152,277.188 176.079,277.188 176.563 M101.630 292.146 C 101.565 292.856,101.481 292.880,99.531 292.756 L 97.500 292.627 97.518 295.141 C 97.528 296.525,97.635 298.219,97.756 298.906 L 97.977 300.156 99.760 300.250 C 101.952 300.365,101.940 300.395,101.798 295.156 C 101.743 293.094,101.667 291.739,101.630 292.146 M127.878 292.266 C 127.797 292.941,124.536 293.082,124.269 292.422 C 124.183 292.207,124.101 293.672,124.087 295.678 C 124.056 300.345,124.041 300.313,126.113 300.313 C 128.140 300.313,128.216 300.104,128.051 295.000 C 127.992 293.195,127.915 291.965,127.878 292.266 M110.947 295.781 C 110.947 300.321,110.975 300.376,113.155 300.252 L 114.844 300.156 114.931 296.406 L 115.019 292.656 113.250 292.766 C 112.008 292.842,111.402 292.749,111.214 292.453 C 111.058 292.206,110.947 293.583,110.947 295.781 M199.181 292.730 L 197.269 292.840 197.072 294.276 C 196.964 295.066,196.875 296.747,196.875 298.012 L 196.875 300.313 199.063 300.313 L 201.250 300.313 201.250 296.406 C 201.250 294.258,201.215 292.527,201.172 292.560 C 201.129 292.593,200.233 292.670,199.181 292.730 " stroke="none" fill="#b48c3c" fill-rule="evenodd"></path><path id="path4" d="M159.688 97.339 C 159.688 97.610,159.477 97.913,159.221 98.011 C 158.964 98.110,158.845 98.338,158.956 98.518 C 159.067 98.698,158.950 98.999,158.696 99.188 C 158.442 99.377,157.314 101.148,156.189 103.125 C 153.544 107.776,148.268 117.272,146.554 120.469 C 145.816 121.844,144.954 123.342,144.638 123.798 C 144.321 124.254,144.063 124.701,144.063 124.790 C 144.063 124.879,143.130 126.615,141.991 128.648 C 140.127 131.973,138.257 135.333,136.020 139.375 C 135.592 140.148,134.223 142.609,132.977 144.844 C 131.731 147.078,130.175 149.891,129.517 151.094 C 128.860 152.297,125.747 157.915,122.599 163.578 C 119.451 169.241,116.878 174.022,116.881 174.203 C 116.885 174.484,119.745 176.563,120.127 176.563 C 120.201 176.563,120.927 175.332,121.740 173.828 C 123.399 170.759,123.337 170.870,128.599 161.406 C 130.701 157.625,132.810 153.828,133.285 152.969 C 133.760 152.109,135.207 149.508,136.499 147.188 C 139.979 140.938,139.915 141.054,144.294 133.125 C 146.524 129.086,149.054 124.516,149.915 122.969 C 150.776 121.422,151.851 119.488,152.303 118.672 C 152.755 117.855,153.495 116.520,153.947 115.703 C 154.399 114.887,155.821 112.321,157.108 110.003 C 161.250 102.538,161.600 101.875,161.401 101.875 C 161.293 101.875,161.426 101.654,161.696 101.384 C 161.967 101.114,162.188 100.692,162.188 100.446 C 162.188 100.201,162.324 100.000,162.490 100.000 C 162.657 100.000,162.703 99.766,162.593 99.480 C 162.448 99.102,162.507 99.030,162.808 99.216 C 163.082 99.385,163.147 99.351,163.000 99.113 C 162.748 98.705,163.261 97.616,163.650 97.734 C 163.791 97.777,163.906 97.637,163.906 97.422 C 163.906 97.157,163.227 97.001,161.797 96.939 C 160.045 96.862,159.688 96.930,159.688 97.339 M236.160 97.069 C 235.798 97.431,235.906 97.869,236.298 97.626 C 236.527 97.485,236.574 97.541,236.428 97.778 C 236.300 97.984,236.417 98.489,236.686 98.900 C 237.557 100.229,238.647 102.169,244.589 112.969 C 249.308 121.544,249.317 121.561,256.251 134.063 C 259.636 140.164,263.221 146.633,264.220 148.438 C 265.218 150.242,266.505 152.563,267.080 153.594 C 267.655 154.625,268.787 156.691,269.596 158.185 C 271.183 161.117,271.125 161.077,274.332 161.431 L 276.319 161.651 275.927 160.904 C 275.711 160.493,274.942 159.102,274.219 157.813 C 273.495 156.523,272.477 154.695,271.957 153.750 C 271.436 152.805,267.102 145.000,262.326 136.406 C 257.550 127.813,253.239 120.036,252.747 119.126 C 251.999 117.741,246.507 107.860,243.680 102.813 C 242.070 99.937,241.713 99.379,241.484 99.377 C 241.355 99.376,241.250 99.164,241.250 98.906 C 241.250 98.648,241.109 98.438,240.938 98.438 C 240.766 98.438,240.642 98.332,240.662 98.203 C 240.835 97.110,240.600 96.969,238.504 96.908 C 237.338 96.874,236.283 96.946,236.160 97.069 M196.931 195.625 C 196.904 200.867,196.967 205.672,197.072 206.303 L 197.261 207.450 199.256 207.553 L 201.251 207.656 201.251 197.969 L 201.251 188.281 199.240 188.385 L 197.228 188.489 197.104 187.291 C 197.036 186.633,196.958 190.383,196.931 195.625 M97.564 196.094 C 97.550 203.500,97.854 210.348,98.086 207.863 C 98.115 207.551,98.604 207.471,100.005 207.550 L 101.885 207.656 101.802 198.125 L 101.719 188.594 99.844 188.594 C 98.012 188.594,97.964 188.572,97.776 187.656 C 97.669 187.141,97.574 190.938,97.564 196.094 M110.647 198.672 C 110.659 204.301,110.778 208.625,110.911 208.281 C 111.104 207.783,111.527 207.625,112.998 207.500 L 114.844 207.344 114.931 198.594 C 115.041 187.697,115.207 188.438,112.650 188.438 L 110.625 188.438 110.647 198.672 M294.376 188.828 C 294.376 189.043,294.842 189.992,295.411 190.938 C 297.910 195.088,299.686 200.185,300.158 204.565 C 300.481 207.565,300.429 207.500,302.498 207.500 C 303.970 207.500,304.362 207.607,304.495 208.047 C 304.851 209.215,304.315 202.877,303.882 200.796 C 303.082 196.949,300.062 189.375,299.328 189.375 C 299.182 189.375,299.063 189.164,299.063 188.906 C 299.063 188.531,298.594 188.438,296.719 188.438 C 295.052 188.438,294.375 188.550,294.376 188.828 M124.062 199.583 L 124.061 207.656 126.015 207.656 L 127.969 207.656 128.125 203.518 L 128.281 199.379 133.234 202.658 C 135.958 204.462,138.249 205.938,138.325 205.938 C 138.401 205.938,138.766 206.219,139.134 206.563 C 139.503 206.906,139.990 207.188,140.215 207.188 C 140.441 207.188,140.625 207.293,140.625 207.422 C 140.625 207.551,142.312 207.656,144.374 207.656 C 146.437 207.656,148.120 207.586,148.116 207.500 C 148.109 207.357,124.874 191.853,124.309 191.615 C 124.173 191.557,124.062 195.143,124.062 199.583 M127.884 270.418 L 127.813 271.618 125.937 271.512 L 124.061 271.406 124.062 277.891 L 124.063 284.375 125.932 284.375 C 128.285 284.375,128.171 284.822,128.051 276.094 C 127.999 272.313,127.924 269.759,127.884 270.418 M97.726 271.684 C 97.602 272.525,97.500 275.759,97.500 278.872 L 97.499 284.531 99.609 284.375 L 101.719 284.219 101.757 277.188 C 101.779 273.320,101.734 270.473,101.658 270.859 C 101.535 271.484,101.332 271.563,99.844 271.563 C 98.347 271.563,98.157 271.488,98.060 270.859 C 97.996 270.445,97.859 270.784,97.726 271.684 M110.853 272.344 C 110.524 275.560,110.577 282.645,110.936 283.589 C 111.228 284.357,111.355 284.401,113.045 284.313 L 114.844 284.219 114.928 277.891 L 115.013 271.563 113.153 271.563 C 111.465 271.563,111.283 271.498,111.185 270.859 C 111.125 270.473,110.975 271.141,110.853 272.344 M197.070 272.539 C 196.963 273.076,196.875 275.994,196.874 279.023 L 196.874 284.531 199.062 284.427 L 201.250 284.324 201.246 278.646 C 201.240 271.298,201.322 271.563,199.065 271.563 C 197.300 271.563,197.262 271.581,197.070 272.539 M192.891 351.790 C 192.160 351.857,191.563 351.955,191.563 352.010 C 191.563 352.064,191.776 352.714,192.037 353.454 C 192.416 354.529,192.432 354.850,192.115 355.051 C 191.897 355.190,200.253 355.305,210.685 355.308 C 221.973 355.311,229.723 355.195,229.829 355.023 C 229.928 354.864,229.741 354.056,229.416 353.227 L 228.823 351.719 211.521 351.694 C 202.005 351.680,193.621 351.724,192.891 351.790 M240.155 352.109 C 240.277 352.410,240.521 353.078,240.697 353.594 C 241.316 355.404,239.892 355.315,267.794 355.276 C 281.984 355.256,293.364 355.179,293.083 355.104 C 292.657 354.991,291.563 352.834,291.563 352.108 C 291.563 351.990,293.355 351.850,295.547 351.796 C 297.738 351.742,286.122 351.668,269.732 351.630 C 241.461 351.566,239.944 351.591,240.155 352.109 " stroke="none" fill="#caae4f" fill-rule="evenodd"></path></g></svg>