<?xml version="1.0" standalone="no"?>
<!DOCTYPE svg PUBLIC "-//W3C//DTD SVG 20010904//EN"
 "http://www.w3.org/TR/2001/REC-SVG-20010904/DTD/svg10.dtd">
<svg version="1.0" xmlns="http://www.w3.org/2000/svg"
 width="1280.000000pt" height="1279.000000pt" viewBox="0 0 1280.000000 1279.000000"
 preserveAspectRatio="xMidYMid meet">

<g transform="translate(0.000000,1279.000000) scale(0.100000,-0.100000)"
fill="#000000" stroke="none">
<path d="M6163 11583 c-127 -230 -720 -1300 -1318 -2378 -598 -1078 -1091
-1967 -1096 -1977 -7 -13 2 -23 42 -48 27 -18 51 -31 53 -29 2 2 254 454 559
1004 879 1586 1603 2892 1805 3257 103 186 189 338 192 338 3 0 39 -62 81
-138 147 -265 1205 -2173 1499 -2702 163 -294 388 -700 499 -901 l203 -366 72
-10 c39 -6 72 -9 74 -8 1 1 -213 391 -476 866 -264 475 -618 1114 -787 1419
-755 1361 -974 1756 -1063 1918 -53 94 -98 172 -101 172 -4 0 -110 -188 -238
-417z"/>
<path d="M6308 6210 l-3 -1100 -160 106 c-88 58 -611 405 -1162 770 -551 365
-1004 664 -1007 664 -3 0 -6 -943 -6 -2095 l0 -2095 65 0 65 0 2 1978 3 1979
625 -414 c344 -228 840 -557 1102 -731 l478 -317 0 -1227 0 -1228 60 0 60 0 0
1220 0 1220 1083 0 c668 0 1116 4 1172 10 419 48 788 318 956 700 85 191 119
438 90 640 -67 456 -383 826 -823 965 -173 55 -176 55 -1435 55 l-1163 0 -2
-1100z m2513 942 c355 -102 614 -339 733 -672 47 -131 59 -203 59 -360 -1
-161 -22 -266 -82 -412 -109 -262 -358 -490 -635 -583 -166 -56 -148 -55
-1353 -55 l-1113 0 0 1055 0 1056 1158 -4 1157 -3 76 -22z"/>
<path d="M3130 4836 l0 -2376 60 0 60 0 2 2260 3 2260 147 -98 148 -97 0
-2162 0 -2163 65 0 65 0 0 2195 0 2196 -262 173 c-145 95 -269 176 -275 180
-10 6 -13 -471 -13 -2368z"/>
<path d="M9941 5494 l-31 -66 361 -651 c199 -359 499 -899 667 -1202 958
-1727 1122 -2026 1122 -2039 0 -9 -11306 -4 -11315 6 -4 3 153 293 348 645
392 705 1477 2663 1612 2907 l86 155 -3 121 -3 121 -129 -233 c-71 -128 -484
-874 -919 -1658 -435 -784 -881 -1591 -992 -1795 l-202 -370 5850 -3 c3218 -1
5852 -1 5854 1 5 6 -389 736 -709 1312 -303 546 -1290 2326 -1468 2648 -51 92
-94 167 -95 167 -2 0 -17 -30 -34 -66z"/>
</g>
</svg>
