<svg id="svg" version="1.1" xmlns="http://www.w3.org/2000/svg" xmlns:xlink="http://www.w3.org/1999/xlink" width="400" height="399.68750000000006" viewBox="0, 0, 400,399.68750000000006"><g id="svgg"><path id="path2" d="M176.250 67.427 C 175.992 67.718,175.816 68.064,175.859 68.197 C 175.902 68.329,175.773 68.438,175.573 68.438 C 175.372 68.438,175.300 68.529,175.412 68.641 C 175.524 68.753,175.371 69.045,175.073 69.289 C 174.712 69.586,174.687 69.666,175.000 69.531 C 175.350 69.380,175.338 69.436,174.955 69.753 C 174.672 69.986,173.989 71.016,173.437 72.042 C 172.885 73.067,172.328 74.047,172.200 74.219 C 172.071 74.391,171.432 75.516,170.781 76.719 C 169.736 78.647,168.252 81.334,165.948 85.469 C 165.565 86.156,164.825 87.492,164.303 88.438 C 163.781 89.383,162.727 91.244,161.962 92.573 C 161.197 93.903,160.538 95.215,160.498 95.489 C 160.458 95.763,160.280 96.082,160.103 96.197 C 159.623 96.509,158.983 97.837,159.206 98.060 C 159.313 98.167,159.485 97.929,159.588 97.533 C 159.768 96.847,159.892 96.817,162.075 96.927 L 164.372 97.043 164.908 95.944 C 165.203 95.339,165.414 94.738,165.378 94.609 C 165.342 94.480,165.453 94.375,165.625 94.375 C 165.797 94.375,165.938 94.164,165.938 93.906 C 165.938 93.648,166.064 93.438,166.219 93.438 C 166.374 93.438,166.650 93.051,166.831 92.578 C 167.013 92.105,167.568 91.016,168.065 90.156 C 168.838 88.819,171.958 83.202,175.009 77.656 C 175.482 76.797,176.308 75.320,176.844 74.375 C 177.381 73.430,178.203 71.883,178.671 70.938 C 179.140 69.992,179.648 69.129,179.801 69.019 C 179.955 68.910,179.989 68.673,179.879 68.494 C 179.768 68.315,179.820 68.080,179.995 67.972 C 180.170 67.864,180.313 67.573,180.313 67.325 C 180.313 66.637,176.874 66.724,176.250 67.427 M219.608 67.266 C 219.536 67.480,219.700 67.842,219.973 68.070 C 220.357 68.390,220.363 68.430,220.000 68.244 C 219.621 68.051,219.602 68.092,219.902 68.463 C 220.106 68.716,220.818 69.973,221.486 71.258 C 222.153 72.543,223.687 75.352,224.894 77.500 C 226.102 79.648,227.587 82.321,228.196 83.440 C 231.947 90.333,234.186 94.248,234.493 94.448 C 234.686 94.575,234.716 94.680,234.561 94.683 C 234.405 94.685,234.501 94.934,234.773 95.234 C 235.045 95.535,235.251 95.852,235.231 95.938 C 235.054 96.684,235.950 97.031,238.047 97.031 C 239.293 97.031,240.313 97.026,240.313 97.019 C 240.313 96.636,239.071 94.782,238.916 94.934 C 238.792 95.056,238.739 94.940,238.798 94.675 C 238.858 94.411,237.433 91.528,235.632 88.269 C 233.831 85.010,232.019 81.711,231.604 80.938 C 231.189 80.164,229.845 77.773,228.616 75.625 C 227.387 73.477,226.195 71.264,225.967 70.707 C 225.739 70.151,225.406 69.786,225.228 69.896 C 225.044 70.010,224.997 69.946,225.119 69.747 C 225.238 69.555,225.049 69.111,224.699 68.761 C 224.349 68.411,224.063 67.929,224.063 67.690 C 224.063 66.839,219.886 66.441,219.608 67.266 M162.846 98.644 C 162.364 99.703,162.518 99.812,163.204 98.894 C 163.505 98.492,163.631 98.088,163.484 97.997 C 163.337 97.906,163.050 98.197,162.846 98.644 M196.920 182.969 C 196.898 184.172,196.970 185.901,197.079 186.811 L 197.278 188.465 199.186 188.373 L 201.094 188.281 201.094 185.313 L 201.094 182.344 199.160 182.251 C 197.452 182.169,197.212 182.078,197.094 181.470 C 197.020 181.091,196.942 181.766,196.920 182.969 M97.690 182.682 C 97.442 183.328,97.478 186.112,97.752 187.500 L 97.969 188.594 99.922 188.594 L 101.876 188.594 101.876 185.885 C 101.875 182.207,101.863 182.188,99.688 182.188 C 98.327 182.188,97.832 182.310,97.690 182.682 M102.813 182.296 C 102.813 182.458,109.288 186.875,109.527 186.875 C 109.855 186.875,110.625 187.736,110.625 188.103 C 110.625 188.306,111.413 188.438,112.630 188.438 C 113.942 188.438,114.690 188.573,114.793 188.828 C 114.880 189.043,114.962 188.360,114.975 187.310 L 115.000 185.401 113.358 184.311 C 110.292 182.275,110.000 182.188,106.266 182.188 C 104.366 182.188,102.813 182.236,102.813 182.296 M288.438 182.424 C 288.438 182.555,289.344 183.609,290.452 184.767 C 291.560 185.925,292.848 187.373,293.314 187.984 C 293.780 188.595,294.249 188.954,294.355 188.782 C 294.461 188.610,295.502 188.427,296.667 188.375 L 298.786 188.281 297.781 186.767 C 297.229 185.935,296.105 184.564,295.284 183.721 L 293.791 182.188 291.114 182.188 C 289.642 182.188,288.438 182.294,288.438 182.424 M101.628 284.646 C 101.578 284.973,101.077 285.042,99.488 284.941 L 97.413 284.809 97.591 288.180 C 97.806 292.270,97.760 292.188,99.856 292.188 C 101.923 292.188,101.944 292.138,101.798 287.500 C 101.741 285.695,101.665 284.411,101.628 284.646 M127.879 284.637 C 127.830 284.947,127.323 285.028,125.928 284.950 L 124.043 284.844 124.131 288.438 L 124.219 292.031 126.019 292.125 C 128.229 292.240,128.174 292.358,128.046 287.793 C 127.991 285.827,127.916 284.407,127.879 284.637 M112.969 285.000 L 111.094 285.156 110.894 288.125 C 110.785 289.758,110.706 292.078,110.719 293.281 C 110.740 295.223,110.756 295.276,110.853 293.750 L 110.963 292.031 112.812 292.136 C 115.049 292.264,115.071 292.219,114.935 287.813 L 114.844 284.844 112.969 285.000 M197.077 286.641 C 196.969 287.543,196.879 289.160,196.878 290.234 L 196.875 292.188 198.867 292.188 C 201.181 292.188,201.250 292.069,201.250 288.111 C 201.250 285.082,201.192 285.000,199.073 285.000 L 197.275 285.000 197.077 286.641 M229.384 353.148 C 229.728 354.020,229.928 354.863,229.830 355.023 C 229.722 355.197,232.110 355.313,235.823 355.313 C 240.807 355.313,241.902 355.237,241.516 354.922 C 241.253 354.707,240.792 353.863,240.493 353.047 L 239.948 351.563 234.354 351.563 L 228.759 351.563 229.384 353.148 " stroke="none" fill="#c19b43" fill-rule="evenodd"></path></g></svg>