<?xml version="1.0" standalone="no"?>
<!DOCTYPE svg PUBLIC "-//W3C//DTD SVG 20010904//EN"
 "http://www.w3.org/TR/2001/REC-SVG-20010904/DTD/svg10.dtd">
<svg version="1.0" xmlns="http://www.w3.org/2000/svg"
 width="1280.000000pt" height="1279.000000pt" viewBox="0 0 1280.000000 1279.000000"
 preserveAspectRatio="xMidYMid meet">

<g transform="translate(0.000000,1279.000000) scale(0.100000,-0.100000)"
fill="#000000" stroke="none">
<path d="M6363 11931 c-18 -33 -33 -62 -33 -65 0 -3 32 -6 70 -6 39 0 70 3 70
6 0 9 -65 124 -70 124 -3 0 -20 -27 -37 -59z"/>
<path d="M6310 7260 l0 -40 1338 0 c1214 1 1334 2 1302 16 -19 9 -82 27 -140
40 l-105 24 -1197 0 -1198 0 0 -40z"/>
<path d="M3130 2775 l0 -315 60 0 60 0 0 315 0 315 -60 0 -60 0 0 -315z"/>
<path d="M3557 2784 c-4 -168 -5 -310 -1 -315 3 -5 30 -9 60 -9 l54 0 0 315 0
315 -53 0 -54 0 -6 -306z"/>
<path d="M3975 3068 c-3 -13 -4 -153 -3 -313 l3 -290 58 -3 57 -3 0 316 0 315
-55 0 c-48 0 -55 -3 -60 -22z"/>
<path d="M6310 2795 l0 -295 60 0 60 0 0 295 0 295 -60 0 -60 0 0 -295z"/>
</g>
</svg>
