<?xml version="1.0" encoding="UTF-8"?>
<!DOCTYPE svg PUBLIC "-//W3C//DTD SVG 1.1//EN" "http://www.w3.org/Graphics/SVG/1.1/DTD/svg11.dtd">
<svg xmlns="http://www.w3.org/2000/svg" version="1.1" width="1280px" height="1279px" style="shape-rendering:geometricPrecision; text-rendering:geometricPrecision; image-rendering:optimizeQuality; fill-rule:evenodd; clip-rule:evenodd" xmlns:xlink="http://www.w3.org/1999/xlink">
<g><path style="opacity:0.955" fill="#b07e33" d="M 676.5,142.5 C 671.821,142.334 667.155,142.501 662.5,143C 663.337,144.011 663.67,145.178 663.5,146.5C 655.779,132.732 647.779,119.065 639.5,105.5C 629.153,123.531 618.82,141.531 608.5,159.5C 603.786,159.173 599.12,159.507 594.5,160.5C 593.964,162.145 593.297,162.478 592.5,161.5C 607.312,133.021 622.979,105.021 639.5,77.5C 652.083,98.9962 664.416,120.663 676.5,142.5 Z"/></g>
<g><path style="opacity:0.955" fill="#b48838" d="M 676.5,142.5 C 686.406,159.975 696.073,177.641 705.5,195.5C 701.154,195.334 696.821,195.501 692.5,196C 691.944,196.383 691.611,196.883 691.5,197.5C 681.409,180.989 672.075,163.989 663.5,146.5C 663.67,145.178 663.337,144.011 662.5,143C 667.155,142.501 671.821,142.334 676.5,142.5 Z"/></g>
<g><path style="opacity:0.972" fill="#b9923e" d="M 608.5,159.5 C 592.018,190.465 575.018,221.131 557.5,251.5C 552.595,250.555 547.595,250.221 542.5,250.5C 558.929,220.636 575.595,190.97 592.5,161.5C 593.297,162.478 593.964,162.145 594.5,160.5C 599.12,159.507 603.786,159.173 608.5,159.5 Z"/></g>
<g><path style="opacity:0.96" fill="#bb9641" d="M 705.5,195.5 C 716.337,213.837 726.671,232.504 736.5,251.5C 731.695,252.487 726.695,252.821 721.5,252.5C 711.5,234.167 701.5,215.833 691.5,197.5C 691.611,196.883 691.944,196.383 692.5,196C 696.821,195.501 701.154,195.334 705.5,195.5 Z"/></g>
<g><path style="opacity:0.959" fill="#c3a54a" d="M 736.5,251.5 C 755.403,284.966 774.069,318.633 792.5,352.5C 790.952,352.179 790.285,351.179 790.5,349.5C 785.637,349.181 780.97,349.514 776.5,350.5C 758.104,317.795 739.771,285.129 721.5,252.5C 726.695,252.821 731.695,252.487 736.5,251.5 Z"/></g>
<g><path style="opacity:0.955" fill="#c7a94d" d="M 542.5,250.5 C 547.595,250.221 552.595,250.555 557.5,251.5C 529.083,303.336 500.417,355.002 471.5,406.5C 469.777,405.2 467.61,404.533 465,404.5C 462.833,404.833 460.667,405.167 458.5,405.5C 458,406.5 457.5,407.5 457,408.5C 456.31,409.738 455.81,409.738 455.5,408.5C 484.502,355.829 513.502,303.162 542.5,250.5 Z"/></g>
<g><path style="opacity:0.967" fill="#cdb051" d="M 792.5,352.5 C 813.325,388.81 833.658,425.476 853.5,462.5C 849.116,462.174 844.783,462.508 840.5,463.5C 841.653,464.687 841.653,465.687 840.5,466.5C 818.972,427.894 797.639,389.227 776.5,350.5C 780.97,349.514 785.637,349.181 790.5,349.5C 790.285,351.179 790.952,352.179 792.5,352.5 Z"/></g>
<g><path style="opacity:0.955" fill="#d0b454" d="M 471.5,406.5 C 456.032,435.434 440.032,464.1 423.5,492.5C 418.438,492.274 413.438,492.608 408.5,493.5C 423.931,464.966 439.597,436.633 455.5,408.5C 455.81,409.738 456.31,409.738 457,408.5C 457.5,407.5 458,406.5 458.5,405.5C 460.667,405.167 462.833,404.833 465,404.5C 467.61,404.533 469.777,405.2 471.5,406.5 Z"/></g>
<g><path style="opacity:0.96" fill="#d4b856" d="M 853.5,462.5 C 863.04,479.901 872.873,497.234 883,514.5C 883.749,515.635 883.583,516.635 882.5,517.5C 877.009,516.489 871.676,515.156 866.5,513.5C 857.553,497.935 848.886,482.269 840.5,466.5C 841.653,465.687 841.653,464.687 840.5,463.5C 844.783,462.508 849.116,462.174 853.5,462.5 Z"/></g>
<g><path style="opacity:0.959" fill="#d8bd59" d="M 423.5,492.5 C 418.525,502.63 413.358,512.63 408,522.5C 400.057,536.732 391.89,550.732 383.5,564.5C 380.467,562.302 377.3,560.302 374,558.5C 373.333,557.167 373.333,555.833 374,554.5C 385.007,533.812 396.507,513.478 408.5,493.5C 413.438,492.608 418.438,492.274 423.5,492.5 Z"/></g>
<g><path style="opacity:0.989" fill="#ab742d" d="M 891.5,552.5 C 804.123,552.839 716.789,553.839 629.5,555.5C 629.5,552.5 629.5,549.5 629.5,546.5C 706.501,546.333 783.501,546.5 860.5,547C 871.13,547.398 881.463,549.231 891.5,552.5 Z"/></g>
<g><path style="opacity:0.996" fill="#ae7b31" d="M 891.5,552.5 C 905.501,556.716 918.168,563.383 929.5,572.5C 929.631,573.239 929.464,573.906 929,574.5C 921.864,573.216 914.697,573.216 907.5,574.5C 892.915,566.475 877.248,561.975 860.5,561C 788.167,560.5 715.834,560.333 643.5,560.5C 643.5,562.833 643.5,565.167 643.5,567.5C 638.833,567.5 634.167,567.5 629.5,567.5C 629.5,563.5 629.5,559.5 629.5,555.5C 716.789,553.839 804.123,552.839 891.5,552.5 Z"/></g>
<g><path style="opacity:0.844" fill="#b28638" d="M 344.5,577.5 C 334.013,578.494 323.346,578.828 312.5,578.5C 312.784,576.585 312.451,574.919 311.5,573.5C 311.171,567.794 311.505,562.128 312.5,556.5C 323.574,563.026 334.241,570.026 344.5,577.5 Z"/></g>
<g><path style="opacity:0.957" fill="#bb9540" d="M 311.5,573.5 C 312.451,574.919 312.784,576.585 312.5,578.5C 323.346,578.828 334.013,578.494 344.5,577.5C 351.167,581.833 357.833,586.167 364.5,590.5C 356.415,590.58 348.081,590.58 339.5,590.5C 335.027,588.095 330.694,585.429 326.5,582.5C 325.52,585.086 325.187,587.753 325.5,590.5C 321.167,590.5 316.833,590.5 312.5,590.5C 312.784,592.415 312.451,594.081 311.5,595.5C 311.5,588.167 311.5,580.833 311.5,573.5 Z"/></g>
<g><path style="opacity:0.936" fill="#b9923f" d="M 629.5,567.5 C 634.167,567.5 638.833,567.5 643.5,567.5C 643.5,575.5 643.5,583.5 643.5,591.5C 638.93,590.559 634.263,590.226 629.5,590.5C 629.5,582.833 629.5,575.167 629.5,567.5 Z"/></g>
<g><path style="opacity:0.951" fill="#bc9843" d="M 929.5,572.5 C 938.555,579.555 946.221,587.888 952.5,597.5C 947.5,597.5 942.5,597.5 937.5,597.5C 937.5,598.5 937.5,599.5 937.5,600.5C 929.002,589.995 919.002,581.328 907.5,574.5C 914.697,573.216 921.864,573.216 929,574.5C 929.464,573.906 929.631,573.239 929.5,572.5 Z"/></g>
<g><path style="opacity:0.854" fill="#cbae50" d="M 629.5,590.5 C 634.263,590.226 638.93,590.559 643.5,591.5C 643.5,608.5 643.5,625.5 643.5,642.5C 638.737,642.774 634.07,642.441 629.5,641.5C 629.5,624.5 629.5,607.5 629.5,590.5 Z"/></g>
<g><path style="opacity:0.999" fill="#caac4f" d="M 325.5,590.5 C 325.5,605.5 325.5,620.5 325.5,635.5C 321.585,636.267 317.585,636.767 313.5,637C 312.891,638.948 312.224,640.782 311.5,642.5C 311.5,626.833 311.5,611.167 311.5,595.5C 312.451,594.081 312.784,592.415 312.5,590.5C 316.833,590.5 321.167,590.5 325.5,590.5 Z"/></g>
<g><path style="opacity:0.972" fill="#cbad50" d="M 339.5,590.5 C 348.081,590.58 356.415,590.58 364.5,590.5C 365.458,590.953 366.292,591.619 367,592.5C 367.5,609.163 367.667,625.83 367.5,642.5C 363.167,642.5 358.833,642.5 354.5,642.5C 354.829,628.99 354.496,615.656 353.5,602.5C 353.719,601.325 353.386,600.325 352.5,599.5C 347.926,596.724 343.593,593.724 339.5,590.5 Z"/></g>
<g><path style="opacity:0.977" fill="#d0b454" d="M 441.5,641.5 C 434.167,642.167 426.833,642.833 419.5,643.5C 415.968,642.146 412.802,640.146 410,637.5C 409.506,639.134 409.34,640.801 409.5,642.5C 405.167,642.5 400.833,642.5 396.5,642.5C 396.168,632.478 396.501,622.478 397.5,612.5C 412.195,622.177 426.862,631.844 441.5,641.5 Z"/></g>
<g><path style="opacity:0.952" fill="#cbad4f" d="M 952.5,597.5 C 961.434,609.042 967.434,622.042 970.5,636.5C 965.737,636.226 961.07,636.559 956.5,637.5C 952.621,623.833 946.288,611.499 937.5,600.5C 937.5,599.5 937.5,598.5 937.5,597.5C 942.5,597.5 947.5,597.5 952.5,597.5 Z"/></g>
<g><path style="opacity:0.962" fill="#dbbf5c" d="M 353.5,602.5 C 354.496,615.656 354.829,628.99 354.5,642.5C 358.833,642.5 363.167,642.5 367.5,642.5C 367.5,651.833 367.5,661.167 367.5,670.5C 363.233,670.203 359.066,670.536 355,671.5C 354.79,669.942 354.29,668.609 353.5,667.5C 353.5,645.833 353.5,624.167 353.5,602.5 Z"/></g>
<g><path style="opacity:0.969" fill="#dabe5b" d="M 970.5,636.5 C 973.591,647.492 974.924,658.825 974.5,670.5C 969.833,670.5 965.167,670.5 960.5,670.5C 960.772,659.279 959.439,648.279 956.5,637.5C 961.07,636.559 965.737,636.226 970.5,636.5 Z"/></g>
<g><path style="opacity:0.971" fill="#dcc15c" d="M 441.5,641.5 C 454.5,650.167 467.5,658.833 480.5,667.5C 473.298,668.232 465.965,668.899 458.5,669.5C 445.291,661.068 432.291,652.402 419.5,643.5C 426.833,642.833 434.167,642.167 441.5,641.5 Z"/></g>
<g><path style="opacity:0.956" fill="#dfc55f" d="M 325.5,635.5 C 325.5,651.167 325.5,666.833 325.5,682.5C 321.233,682.203 317.066,682.536 313,683.5C 312.768,682.263 312.268,681.263 311.5,680.5C 311.5,667.833 311.5,655.167 311.5,642.5C 312.224,640.782 312.891,638.948 313.5,637C 317.585,636.767 321.585,636.267 325.5,635.5 Z"/></g>
<g><path style="opacity:0.976" fill="#e4ca62" d="M 396.5,642.5 C 400.833,642.5 405.167,642.5 409.5,642.5C 409.5,659.5 409.5,676.5 409.5,693.5C 405.167,693.5 400.833,693.5 396.5,693.5C 396.5,676.5 396.5,659.5 396.5,642.5 Z"/></g>
<g><path style="opacity:0.962" fill="#ead066" d="M 480.5,667.5 C 499.837,680.501 519.17,693.501 538.5,706.5C 530.778,706.233 523.111,706.566 515.5,707.5C 496.291,695.068 477.291,682.402 458.5,669.5C 465.965,668.899 473.298,668.232 480.5,667.5 Z"/></g>
<g><path style="opacity:0.939" fill="#e4ca62" d="M 629.5,641.5 C 634.07,642.441 638.737,642.774 643.5,642.5C 643.5,659.5 643.5,676.5 643.5,693.5C 639.167,693.5 634.833,693.5 630.5,693.5C 630.806,690.615 630.473,687.948 629.5,685.5C 629.5,670.833 629.5,656.167 629.5,641.5 Z"/></g>
<g><path style="opacity:0.97" fill="#edd66a" d="M 960.5,670.5 C 965.167,670.5 969.833,670.5 974.5,670.5C 973.995,684.508 970.995,697.841 965.5,710.5C 960.737,710.774 956.07,710.441 951.5,709.5C 956.542,696.996 959.542,683.996 960.5,670.5 Z"/></g>
<g><path style="opacity:0.959" fill="#f3de6e" d="M 311.5,680.5 C 312.268,681.263 312.768,682.263 313,683.5C 317.066,682.536 321.233,682.203 325.5,682.5C 325.5,706.833 325.5,731.167 325.5,755.5C 324.596,756.209 324.263,757.209 324.5,758.5C 320.833,758.5 317.167,758.5 313.5,758.5C 313.657,757.127 313.49,755.793 313,754.5C 312.817,757.365 312.317,760.031 311.5,762.5C 311.5,735.167 311.5,707.833 311.5,680.5 Z"/></g>
<g><path style="opacity:0.976" fill="#f5e06f" d="M 396.5,693.5 C 400.833,693.5 405.167,693.5 409.5,693.5C 409.5,715.167 409.5,736.833 409.5,758.5C 405.167,758.5 400.833,758.5 396.5,758.5C 396.5,736.833 396.5,715.167 396.5,693.5 Z"/></g>
<g><path style="opacity:0.958" fill="#f6e16f" d="M 538.5,706.5 C 567.518,725.006 596.185,744.006 624.5,763.5C 617.083,763.349 609.083,763.349 600.5,763.5C 571.987,745.079 543.654,726.412 515.5,707.5C 523.111,706.566 530.778,706.233 538.5,706.5 Z"/></g>
<g><path style="opacity:0.939" fill="#f5e06f" d="M 629.5,685.5 C 630.473,687.948 630.806,690.615 630.5,693.5C 634.833,693.5 639.167,693.5 643.5,693.5C 643.5,714.167 643.5,734.833 643.5,755.5C 642.596,756.209 642.263,757.209 642.5,758.5C 638.5,758.5 634.5,758.5 630.5,758.5C 630.737,757.209 630.404,756.209 629.5,755.5C 629.5,732.167 629.5,708.833 629.5,685.5 Z"/></g>
<g><path style="opacity:0.955" fill="#f3dd6c" d="M 353.5,667.5 C 354.29,668.609 354.79,669.942 355,671.5C 359.066,670.536 363.233,670.203 367.5,670.5C 367.5,708.833 367.5,747.167 367.5,785.5C 363.333,786.803 359.166,786.803 355,785.5C 354.5,803.497 354.333,821.497 354.5,839.5C 354.821,844.695 354.487,849.695 353.5,854.5C 353.5,792.167 353.5,729.833 353.5,667.5 Z"/></g>
<g><path style="opacity:0.959" fill="#efd96b" d="M 1037.5,794.5 C 1036.08,794.25 1035.08,793.417 1034.5,792C 1029.85,791.501 1025.18,791.334 1020.5,791.5C 1010.16,772.829 999.831,754.162 989.5,735.5C 991.833,730.833 994.167,726.167 996.5,721.5C 1010.95,745.399 1024.62,769.733 1037.5,794.5 Z"/></g>
<g><path style="opacity:0.96" fill="#f1d867" d="M 951.5,709.5 C 956.07,710.441 960.737,710.774 965.5,710.5C 948.544,749.504 919.211,773.671 877.5,783C 799.522,784.473 721.522,784.973 643.5,784.5C 639.486,786.334 635.153,787.001 630.5,786.5C 630.823,793.022 630.49,799.355 629.5,805.5C 629.831,797.804 629.497,790.138 628.5,782.5C 619.101,776.144 609.768,769.81 600.5,763.5C 609.083,763.349 617.083,763.349 624.5,763.5C 626.044,763.703 627.378,764.37 628.5,765.5C 629.487,762.232 629.82,758.898 629.5,755.5C 630.404,756.209 630.737,757.209 630.5,758.5C 634.5,758.5 638.5,758.5 642.5,758.5C 642.263,757.209 642.596,756.209 643.5,755.5C 643.5,760.833 643.5,766.167 643.5,771.5C 715.834,771.667 788.167,771.5 860.5,771C 902.077,766.896 932.41,746.396 951.5,709.5 Z"/></g>
<g><path style="opacity:0.965" fill="#edd160" d="M 396.5,758.5 C 400.833,758.5 405.167,758.5 409.5,758.5C 409.5,784.167 409.5,809.833 409.5,835.5C 408.566,836.568 408.232,837.901 408.5,839.5C 404.833,839.5 401.167,839.5 397.5,839.5C 397.768,837.901 397.434,836.568 396.5,835.5C 396.5,809.833 396.5,784.167 396.5,758.5 Z"/></g>
<g><path style="opacity:0.956" fill="#eace5c" d="M 325.5,755.5 C 325.5,786.167 325.5,816.833 325.5,847.5C 321.5,847.5 317.5,847.5 313.5,847.5C 313.66,845.801 313.494,844.134 313,842.5C 312.824,846.688 312.324,850.688 311.5,854.5C 311.5,823.833 311.5,793.167 311.5,762.5C 312.317,760.031 312.817,757.365 313,754.5C 313.49,755.793 313.657,757.127 313.5,758.5C 317.167,758.5 320.833,758.5 324.5,758.5C 324.263,757.209 324.596,756.209 325.5,755.5 Z"/></g>
<g><path style="opacity:0.96" fill="#eacd5c" d="M 367.5,785.5 C 367.5,802.5 367.5,819.5 367.5,836.5C 366.596,837.209 366.263,838.209 366.5,839.5C 362.5,839.5 358.5,839.5 354.5,839.5C 354.333,821.497 354.5,803.497 355,785.5C 359.166,786.803 363.333,786.803 367.5,785.5 Z"/></g>
<g><path style="opacity:0.956" fill="#f5e06f" d="M 103.5,1071.5 C 98.5947,1070.55 93.5947,1070.22 88.5,1070.5C 147.085,964.612 205.585,858.612 264,752.5C 268.596,744.298 273.43,736.298 278.5,728.5C 279.665,737.147 279.832,745.814 279,754.5C 220.502,860.162 162.002,965.829 103.5,1071.5 Z"/></g>
<g><path style="opacity:0.959" fill="#f6e16f" d="M 1020.5,791.5 C 1025.18,791.334 1029.85,791.501 1034.5,792C 1035.08,793.417 1036.08,794.25 1037.5,794.5C 1086.03,880.901 1134.03,967.567 1181.5,1054.5C 1181.33,1055.82 1181.66,1056.99 1182.5,1058C 1177.85,1058.5 1173.18,1058.67 1168.5,1058.5C 1119.17,969.5 1069.83,880.5 1020.5,791.5 Z"/></g>
<g><path style="opacity:0.976" fill="#e1bf4f" d="M 325.5,847.5 C 325.5,863.167 325.5,878.833 325.5,894.5C 321.233,894.797 317.066,894.464 313,893.5C 312.722,894.416 312.222,895.082 311.5,895.5C 311.5,881.833 311.5,868.167 311.5,854.5C 312.324,850.688 312.824,846.688 313,842.5C 313.494,844.134 313.66,845.801 313.5,847.5C 317.5,847.5 321.5,847.5 325.5,847.5 Z"/></g>
<g><path style="opacity:0.965" fill="#e2c050" d="M 367.5,836.5 C 367.5,856.167 367.5,875.833 367.5,895.5C 363.33,894.863 359.164,894.197 355,893.5C 354.824,897.688 354.324,901.688 353.5,905.5C 353.5,888.5 353.5,871.5 353.5,854.5C 354.487,849.695 354.821,844.695 354.5,839.5C 358.5,839.5 362.5,839.5 366.5,839.5C 366.263,838.209 366.596,837.209 367.5,836.5 Z"/></g>
<g><path style="opacity:0.972" fill="#e3c252" d="M 396.5,835.5 C 397.434,836.568 397.768,837.901 397.5,839.5C 401.167,839.5 404.833,839.5 408.5,839.5C 408.232,837.901 408.566,836.568 409.5,835.5C 409.5,851.833 409.5,868.167 409.5,884.5C 405.167,887.167 400.833,887.167 396.5,884.5C 396.5,868.167 396.5,851.833 396.5,835.5 Z"/></g>
<g><path style="opacity:0.915" fill="#e7c856" d="M 643.5,784.5 C 643.5,813.833 643.5,843.167 643.5,872.5C 642.596,873.209 642.263,874.209 642.5,875.5C 638.5,875.5 634.5,875.5 630.5,875.5C 630.795,877.735 630.461,879.735 629.5,881.5C 629.5,856.167 629.5,830.833 629.5,805.5C 630.49,799.355 630.823,793.022 630.5,786.5C 635.153,787.001 639.486,786.334 643.5,784.5 Z"/></g>
<g><path style="opacity:0.92" fill="#d4ab45" d="M 643.5,872.5 C 643.5,884.833 643.5,897.167 643.5,909.5C 638.737,909.226 634.07,909.559 629.5,910.5C 629.5,900.833 629.5,891.167 629.5,881.5C 630.461,879.735 630.795,877.735 630.5,875.5C 634.5,875.5 638.5,875.5 642.5,875.5C 642.263,874.209 642.596,873.209 643.5,872.5 Z"/></g>
<g><path style="opacity:0.969" fill="#d0a642" d="M 396.5,884.5 C 400.833,887.167 405.167,887.167 409.5,884.5C 409.5,894.5 409.5,904.5 409.5,914.5C 405.167,914.5 400.833,914.5 396.5,914.5C 396.5,904.5 396.5,894.5 396.5,884.5 Z"/></g>
<g><path style="opacity:0.959" fill="#cc9f3e" d="M 325.5,894.5 C 325.5,905.167 325.5,915.833 325.5,926.5C 324.596,927.209 324.263,928.209 324.5,929.5C 320.5,929.5 316.5,929.5 312.5,929.5C 312.737,928.209 312.404,927.209 311.5,926.5C 311.5,916.167 311.5,905.833 311.5,895.5C 312.222,895.082 312.722,894.416 313,893.5C 317.066,894.464 321.233,894.797 325.5,894.5 Z"/></g>
<g><path style="opacity:0.961" fill="#cea13f" d="M 367.5,895.5 C 367.5,904.5 367.5,913.5 367.5,922.5C 363.003,923.055 358.836,922.389 355,920.5C 354.5,928.493 354.334,936.493 354.5,944.5C 354.167,944.5 353.833,944.5 353.5,944.5C 353.5,931.5 353.5,918.5 353.5,905.5C 354.324,901.688 354.824,897.688 355,893.5C 359.164,894.197 363.33,894.863 367.5,895.5 Z"/></g>
<g><path style="opacity:0.971" fill="#c29037" d="M 396.5,914.5 C 400.833,914.5 405.167,914.5 409.5,914.5C 409.5,924.167 409.5,933.833 409.5,943.5C 405.167,944.833 400.833,944.833 396.5,943.5C 396.5,933.833 396.5,924.167 396.5,914.5 Z"/></g>
<g><path style="opacity:0.961" fill="#c18f36" d="M 367.5,922.5 C 367.5,929.833 367.5,937.167 367.5,944.5C 363.167,944.5 358.833,944.5 354.5,944.5C 354.334,936.493 354.5,928.493 355,920.5C 358.836,922.389 363.003,923.055 367.5,922.5 Z"/></g>
<g><path style="opacity:0.954" fill="#c39238" d="M 643.5,909.5 C 643.5,921.167 643.5,932.833 643.5,944.5C 638.737,944.774 634.07,944.441 629.5,943.5C 629.5,932.5 629.5,921.5 629.5,910.5C 634.07,909.559 638.737,909.226 643.5,909.5 Z"/></g>
<g><path style="opacity:0.915" fill="#b88230" d="M 629.5,943.5 C 634.07,944.441 638.737,944.774 643.5,944.5C 643.5,949.833 643.5,955.167 643.5,960.5C 642.596,961.209 642.263,962.209 642.5,963.5C 638.5,963.5 634.5,963.5 630.5,963.5C 630.737,962.209 630.404,961.209 629.5,960.5C 629.5,954.833 629.5,949.167 629.5,943.5 Z"/></g>
<g><path style="opacity:0.956" fill="#ba8531" d="M 311.5,926.5 C 312.404,927.209 312.737,928.209 312.5,929.5C 316.5,929.5 320.5,929.5 324.5,929.5C 324.263,928.209 324.596,927.209 325.5,926.5C 325.5,938.833 325.5,951.167 325.5,963.5C 321.486,963.666 317.486,963.499 313.5,963C 312.883,960.723 312.216,958.556 311.5,956.5C 311.5,946.5 311.5,936.5 311.5,926.5 Z"/></g>
<g><path style="opacity:0.974" fill="#b67f2e" d="M 396.5,943.5 C 400.833,944.833 405.167,944.833 409.5,943.5C 409.5,952.167 409.5,960.833 409.5,969.5C 404.847,970.001 400.514,969.334 396.5,967.5C 396.5,959.5 396.5,951.5 396.5,943.5 Z"/></g>
<g><path style="opacity:0.974" fill="#b77f2e" d="M 353.5,944.5 C 353.833,944.5 354.167,944.5 354.5,944.5C 358.833,944.5 363.167,944.5 367.5,944.5C 367.5,952.167 367.5,959.833 367.5,967.5C 365.616,968.675 363.449,969.342 361,969.5C 358.698,969.4 356.698,968.733 355,967.5C 354.83,976.343 354.33,985.01 353.5,993.5C 353.5,977.167 353.5,960.833 353.5,944.5 Z"/></g>
<g><path style="opacity:0.96" fill="#a96c26" d="M 311.5,956.5 C 312.216,958.556 312.883,960.723 313.5,963C 317.486,963.499 321.486,963.666 325.5,963.5C 325.5,977.167 325.5,990.833 325.5,1004.5C 321.585,1003.73 317.585,1003.23 313.5,1003C 312.868,999.73 312.201,996.563 311.5,993.5C 311.5,981.167 311.5,968.833 311.5,956.5 Z"/></g>
<g><path style="opacity:0.964" fill="#a56623" d="M 367.5,967.5 C 367.5,982.5 367.5,997.5 367.5,1012.5C 363.265,1013.44 358.931,1013.77 354.5,1013.5C 354.823,1019.69 354.49,1025.69 353.5,1031.5C 353.5,1018.83 353.5,1006.17 353.5,993.5C 354.33,985.01 354.83,976.343 355,967.5C 356.698,968.733 358.698,969.4 361,969.5C 363.449,969.342 365.616,968.675 367.5,967.5 Z"/></g>
<g><path style="opacity:0.97" fill="#a56723" d="M 396.5,967.5 C 400.514,969.334 404.847,970.001 409.5,969.5C 409.5,984.167 409.5,998.833 409.5,1013.5C 405.069,1013.77 400.735,1013.44 396.5,1012.5C 396.5,997.5 396.5,982.5 396.5,967.5 Z"/></g>
<g><path style="opacity:0.974" fill="#a46522" d="M 629.5,960.5 C 630.404,961.209 630.737,962.209 630.5,963.5C 634.5,963.5 638.5,963.5 642.5,963.5C 642.263,962.209 642.596,961.209 643.5,960.5C 643.5,983.5 643.5,1006.5 643.5,1029.5C 638.833,1029.5 634.167,1029.5 629.5,1029.5C 629.5,1006.5 629.5,983.5 629.5,960.5 Z"/></g>
<g><path style="opacity:0.956" fill="#9c5a1d" d="M 311.5,993.5 C 312.201,996.563 312.868,999.73 313.5,1003C 317.585,1003.23 321.585,1003.73 325.5,1004.5C 325.5,1013.83 325.5,1023.17 325.5,1032.5C 320.833,1032.5 316.167,1032.5 311.5,1032.5C 311.5,1019.5 311.5,1006.5 311.5,993.5 Z"/></g>
<g><path style="opacity:0.94" fill="#99561b" d="M 367.5,1012.5 C 367.5,1019.17 367.5,1025.83 367.5,1032.5C 362.637,1032.82 357.97,1032.49 353.5,1031.5C 354.49,1025.69 354.823,1019.69 354.5,1013.5C 358.931,1013.77 363.265,1013.44 367.5,1012.5 Z"/></g>
<g><path style="opacity:0.955" fill="#99561b" d="M 396.5,1012.5 C 400.735,1013.44 405.069,1013.77 409.5,1013.5C 409.5,1019.83 409.5,1026.17 409.5,1032.5C 405.167,1032.5 400.833,1032.5 396.5,1032.5C 396.5,1025.83 396.5,1019.17 396.5,1012.5 Z"/></g>
<g><path style="opacity:0.92" fill="#f8e573" d="M 88.5,1070.5 C 93.5947,1070.22 98.5947,1070.55 103.5,1071.5C 93.8285,1088.84 84.1618,1106.17 74.5,1123.5C 226.832,1124.5 379.165,1124.83 531.5,1124.5C 535.561,1127.29 537.561,1131.29 537.5,1136.5C 375.832,1136.83 214.165,1136.5 52.5,1135.5C 64.2599,1113.64 76.2599,1091.98 88.5,1070.5 Z"/></g>
<g><path style="opacity:0.835" fill="#e9cb5a" d="M 531.5,1124.5 C 561.167,1124.5 590.833,1124.5 620.5,1124.5C 617.51,1124.96 614.677,1125.96 612,1127.5C 611.465,1125.73 610.631,1125.4 609.5,1126.5C 610.645,1129.94 611.979,1133.28 613.5,1136.5C 588.167,1136.5 562.833,1136.5 537.5,1136.5C 537.561,1131.29 535.561,1127.29 531.5,1124.5 Z"/></g>
<g><path style="opacity:0.921" fill="#daba4e" d="M 871.5,1124.5 C 892.833,1124.5 914.167,1124.5 935.5,1124.5C 936.488,1128.48 937.488,1132.48 938.5,1136.5C 912.5,1136.5 886.5,1136.5 860.5,1136.5C 859.267,1132.97 857.933,1129.47 856.5,1126C 861.684,1125.83 866.684,1125.33 871.5,1124.5 Z"/></g>
<g><path style="opacity:1" fill="#debd4f" d="M 620.5,1124.5 C 635.833,1124.5 651.167,1124.5 666.5,1124.5C 665.737,1125.27 664.737,1125.77 663.5,1126C 664.689,1128.88 666.022,1131.71 667.5,1134.5C 663.687,1135.17 660.021,1135.83 656.5,1136.5C 642.167,1136.5 627.833,1136.5 613.5,1136.5C 611.979,1133.28 610.645,1129.94 609.5,1126.5C 610.631,1125.4 611.465,1125.73 612,1127.5C 614.677,1125.96 617.51,1124.96 620.5,1124.5 Z"/></g>
<g><path style="opacity:0.95" fill="#caaa4b" d="M 666.5,1124.5 C 734.833,1124.5 803.167,1124.5 871.5,1124.5C 866.684,1125.33 861.684,1125.83 856.5,1126C 857.933,1129.47 859.267,1132.97 860.5,1136.5C 792.5,1136.5 724.5,1136.5 656.5,1136.5C 660.021,1135.83 663.687,1135.17 667.5,1134.5C 666.022,1131.71 664.689,1128.88 663.5,1126C 664.737,1125.77 665.737,1125.27 666.5,1124.5 Z"/></g>
<g><path style="opacity:0.92" fill="#ebcf5d" d="M 935.5,1124.5 C 957.833,1124.5 980.167,1124.5 1002.5,1124.5C 1005.36,1125.17 1008.36,1125.83 1011.5,1126.5C 1012.85,1129.86 1014.18,1133.19 1015.5,1136.5C 989.833,1136.5 964.167,1136.5 938.5,1136.5C 937.488,1132.48 936.488,1128.48 935.5,1124.5 Z"/></g>
<g><path style="opacity:0.94" fill="#f5e16e" d="M 1002.5,1124.5 C 1049.83,1124.5 1097.17,1124.5 1144.5,1124.5C 1130.68,1125.5 1116.68,1125.83 1102.5,1125.5C 1102.89,1129.34 1103.89,1133.01 1105.5,1136.5C 1075.5,1136.5 1045.5,1136.5 1015.5,1136.5C 1014.18,1133.19 1012.85,1129.86 1011.5,1126.5C 1008.36,1125.83 1005.36,1125.17 1002.5,1124.5 Z"/></g>
<g><path style="opacity:0.915" fill="#efd362" d="M 1181.5,1054.5 C 1196.9,1080.96 1211.57,1107.96 1225.5,1135.5C 1185.51,1136.5 1145.51,1136.83 1105.5,1136.5C 1103.89,1133.01 1102.89,1129.34 1102.5,1125.5C 1116.68,1125.83 1130.68,1125.5 1144.5,1124.5C 1164.5,1124.67 1184.5,1124.5 1204.5,1124C 1192.58,1102 1180.58,1080.17 1168.5,1058.5C 1173.18,1058.67 1177.85,1058.5 1182.5,1058C 1181.66,1056.99 1181.33,1055.82 1181.5,1054.5 Z"/></g>
</svg>
